<svg width="60" height="60" xmlns="http://www.w3.org/2000/svg">

 <g>
  <title>background</title>
  <rect fill="none" id="canvas_background" height="402" width="582" y="-1" x="-1"/>
 </g>
 <g>
  <title>Layer 1</title>
  <g id="svg_43">
   <path id="svg_44" fill="#8697CB" d="m8,55.5l-8,0l0,-7c0,-0.553 0.448,-1 1,-1s1,0.447 1,1l0,5l6,0c0.552,0 1,0.447 1,1s-0.448,1 -1,1z"/>
   <path id="svg_45" fill="#8697CB" d="m60,55.5l-7,0c-0.552,0 -1,-0.447 -1,-1s0.448,-1 1,-1l5,0l0,-5c0,-0.553 0.448,-1 1,-1s1,0.447 1,1l0,7z"/>
  </g>
  <g id="svg_46">
   <path id="svg_47" fill="#8697CB" d="m59,12.5c-0.552,0 -1,-0.447 -1,-1l0,-5l-6,0c-0.552,0 -1,-0.447 -1,-1s0.448,-1 1,-1l8,0l0,7c0,0.553 -0.448,1 -1,1z"/>
   <path id="svg_48" fill="#8697CB" d="m1,12.5c-0.552,0 -1,-0.447 -1,-1l0,-7l7,0c0.552,0 1,0.447 1,1s-0.448,1 -1,1l-5,0l0,5c0,0.553 -0.448,1 -1,1z"/>
  </g>
  <g id="svg_50"/>
  <g id="svg_51"/>
  <g id="svg_52"/>
  <g id="svg_53"/>
  <g id="svg_54"/>
  <g id="svg_55"/>
  <g id="svg_56"/>
  <g id="svg_57"/>
  <g id="svg_58"/>
  <g id="svg_59"/>
  <g id="svg_60"/>
  <g id="svg_61"/>
  <g id="svg_62"/>
  <g id="svg_63"/>
  <g id="svg_64"/>
 </g>
</svg>